<svg width="20" height="20" viewBox="0 0 20 20" fill="none" xmlns="http://www.w3.org/2000/svg">
<path fill-rule="evenodd" clip-rule="evenodd" d="M9.94092 3.82102C9.97362 3.78832 10.0266 3.78832 10.0593 3.82102L13.3931 7.15463C13.4258 7.18733 13.4258 7.24035 13.3931 7.27305L10.0593 10.6067C10.0266 10.6394 9.97362 10.6394 9.94092 10.6067L6.60715 7.27305C6.57445 7.24035 6.57445 7.18733 6.60715 7.15463L9.94092 3.82102ZM15.5138 9.39335C15.5465 9.36065 15.5995 9.36065 15.6322 9.39335L18.966 12.727C18.9987 12.7597 18.9987 12.8127 18.966 12.8454L15.6322 16.179C15.5995 16.2117 15.5465 16.2117 15.5138 16.179L12.18 12.8454C12.1473 12.8127 12.1473 12.7597 12.18 12.727L15.5138 9.39335ZM4.42679 9.33408C4.42679 9.33412 4.42681 9.33416 4.42684 9.33419L7.81976 12.727C7.85246 12.7597 7.85246 12.8127 7.81976 12.8454L4.486 16.179C4.4533 16.2117 4.40028 16.2117 4.36758 16.179L1.03381 12.8449C1.00112 12.8122 1.00112 12.7592 1.03382 12.7265L4.42651 9.33396C4.42662 9.33386 4.42679 9.33393 4.42679 9.33408V9.33408Z" fill="white"/>
</svg>
